<svg width="19" height="19" viewBox="0 0 19 19" fill="none" xmlns="http://www.w3.org/2000/svg">
<path fill-rule="evenodd" clip-rule="evenodd" d="M13.5065 0C16.6801 0 18.8125 2.22775 18.8125 5.54313V13.2694C18.8125 16.5847 16.6801 18.8125 13.5065 18.8125H5.306C2.13238 18.8125 0 16.5847 0 13.2694V5.54313C0 2.22775 2.13238 0 5.306 0H13.5065ZM13.5065 1.3125H5.306C2.8805 1.3125 1.3125 2.97238 1.3125 5.54313V13.2694C1.3125 15.8401 2.8805 17.5 5.306 17.5H13.5065C15.9329 17.5 17.5 15.8401 17.5 13.2694V5.54313C17.5 2.97238 15.9329 1.3125 13.5065 1.3125ZM5.35596 7.17719C5.71821 7.17719 6.01221 7.47119 6.01221 7.83344V13.8359C6.01221 14.1982 5.71821 14.4922 5.35596 14.4922C4.99371 14.4922 4.69971 14.1982 4.69971 13.8359V7.83344C4.69971 7.47119 4.99371 7.17719 5.35596 7.17719ZM9.43959 4.30369C9.80184 4.30369 10.0958 4.59769 10.0958 4.95994V13.8351C10.0958 14.1973 9.80184 14.4913 9.43959 14.4913C9.07734 14.4913 8.78334 14.1973 8.78334 13.8351V4.95994C8.78334 4.59769 9.07734 4.30369 9.43959 4.30369ZM13.4561 10.3491C13.8183 10.3491 14.1124 10.6431 14.1124 11.0053V13.8351C14.1124 14.1973 13.8183 14.4913 13.4561 14.4913C13.0939 14.4913 12.7998 14.1973 12.7998 13.8351V11.0053C12.7998 10.6431 13.0939 10.3491 13.4561 10.3491Z" fill="#C4C4C4"/>
</svg>
