<svg width="26" height="26" viewBox="0 0 26 26" fill="none" xmlns="http://www.w3.org/2000/svg">
<path fill-rule="evenodd" clip-rule="evenodd" d="M18.4741 2.16699C21.1163 2.16699 23.2678 4.31741 23.2678 6.96074V19.028C23.2678 21.6778 21.1109 23.8337 18.4622 23.8337H13.1701C10.5278 23.8337 8.37742 21.6832 8.37742 19.0399V18.0194C8.37742 17.5709 8.74142 17.2069 9.18992 17.2069C9.63842 17.2069 10.0024 17.5709 10.0024 18.0194V19.0399C10.0024 20.7862 11.4237 22.2087 13.1701 22.2087H18.4622C20.2161 22.2087 21.6428 20.783 21.6428 19.028V6.96074C21.6428 5.21441 20.2204 3.79199 18.4741 3.79199H13.182C11.4292 3.79199 10.0024 5.21766 10.0024 6.97049V7.98124C10.0024 8.42974 9.63842 8.79374 9.18992 8.79374C8.74142 8.79374 8.37742 8.42974 8.37742 7.98124V6.97049C8.37742 4.32174 10.5333 2.16699 13.182 2.16699H18.4741ZM14.5083 9.26608L17.6814 12.4259C17.7071 12.4516 17.7311 12.4791 17.7532 12.5081L17.6814 12.4251C17.7247 12.4677 17.7625 12.5148 17.7946 12.5653C17.8012 12.5779 17.8086 12.5903 17.8156 12.6029C17.828 12.6223 17.8384 12.6429 17.848 12.6639C17.8534 12.6788 17.8596 12.6936 17.8654 12.7087C17.8747 12.7292 17.8818 12.7504 17.8881 12.7719C17.8918 12.7888 17.8961 12.8056 17.8999 12.8227C17.9058 12.8433 17.9096 12.8641 17.9126 12.885C17.9126 12.8946 17.9139 12.9046 17.9149 12.9146C17.9193 12.9432 17.9208 12.9717 17.9208 13.0003L17.9129 13.0859L17.912 13.1105C17.9117 13.1124 17.9115 13.1142 17.9112 13.116L17.9208 13.0003C17.9208 13.0605 17.9142 13.12 17.9012 13.1779C17.8961 13.195 17.8918 13.2119 17.8869 13.2285C17.8818 13.2502 17.8747 13.2714 17.8667 13.2922C17.8596 13.307 17.8534 13.3219 17.8468 13.3365C17.8384 13.3578 17.828 13.3784 17.8166 13.3985C17.8086 13.4104 17.8012 13.4227 17.7935 13.4348C17.7818 13.4555 17.7681 13.4751 17.7534 13.4941C17.7434 13.5054 17.7341 13.5169 17.7245 13.5281C17.7115 13.5447 17.6968 13.5604 17.6814 13.5756L14.5083 16.7335C14.3502 16.8917 14.1422 16.9707 13.9352 16.9707C13.7272 16.9707 13.5182 16.8917 13.36 16.7313C13.0426 16.4128 13.0447 15.8993 13.3622 15.583L15.1396 13.8128H4.0625C3.614 13.8128 3.25 13.4488 3.25 13.0003C3.25 12.5518 3.614 12.1878 4.0625 12.1878H15.1396L13.3622 10.4166C13.0447 10.1002 13.0426 9.58674 13.36 9.26824C13.6774 8.94974 14.1909 8.94974 14.5083 9.26608Z" fill="#98A0B2"/>
</svg>
