<svg width="24" height="24" viewBox="0 0 24 24" fill="none" xmlns="http://www.w3.org/2000/svg">
<path d="M12 2L4 5V11.09C4 16.14 7.41 20.85 12 22C16.59 20.85 20 16.14 20 11.09V5L12 2Z" fill="#0B677E"/>
<path d="M14.67 12.99C14.67 13.3367 14.58 13.6633 14.4 13.97C14.2267 14.27 13.9667 14.52 13.62 14.72C13.28 14.9133 12.8767 15.0267 12.41 15.06V15.87H11.77V15.05C11.1033 14.99 10.5667 14.79 10.16 14.45C9.75333 14.1033 9.54333 13.6367 9.53 13.05H11.03C11.07 13.53 11.3167 13.82 11.77 13.92V12.01C11.29 11.89 10.9033 11.77 10.61 11.65C10.3167 11.53 10.0633 11.3367 9.85 11.07C9.63667 10.8033 9.53 10.44 9.53 9.98C9.53 9.4 9.73667 8.92667 10.15 8.56C10.57 8.19333 11.11 7.98333 11.77 7.93V7.12H12.41V7.93C13.05 7.98333 13.56 8.17667 13.94 8.51C14.3267 8.84333 14.5433 9.30333 14.59 9.89H13.08C13.06 9.69667 12.99 9.53 12.87 9.39C12.7567 9.24333 12.6033 9.14 12.41 9.08V10.97C12.91 11.0967 13.3033 11.22 13.59 11.34C13.8833 11.4533 14.1367 11.6433 14.35 11.91C14.5633 12.17 14.67 12.53 14.67 12.99ZM10.99 9.91C10.99 10.13 11.0567 10.31 11.19 10.45C11.3233 10.5833 11.5167 10.6933 11.77 10.78V9.05C11.53 9.08333 11.34 9.17333 11.2 9.32C11.06 9.46667 10.99 9.66333 10.99 9.91ZM12.41 13.94C12.6633 13.8933 12.86 13.79 13 13.63C13.1467 13.47 13.22 13.2767 13.22 13.05C13.22 12.83 13.15 12.6533 13.01 12.52C12.87 12.3867 12.67 12.2767 12.41 12.19V13.94Z" fill="white"/>
</svg>
