<svg width="19" height="18" viewBox="0 0 19 18" fill="none" xmlns="http://www.w3.org/2000/svg">
<path fill-rule="evenodd" clip-rule="evenodd" d="M13.7016 0C16.6154 0 18.8125 2.37738 18.8125 5.53V11.5395C18.8125 13.153 18.242 14.6107 17.2051 15.645C16.275 16.5716 15.0684 17.0625 13.7156 17.0625H5.09425C3.74412 17.0625 2.53837 16.5725 1.60737 15.645C0.5705 14.6107 0 13.153 0 11.5395V5.53C0 2.37738 2.19712 0 5.11087 0H13.7016ZM13.7016 1.3125H5.11087C2.91025 1.3125 1.3125 3.08613 1.3125 5.53V11.5395C1.3125 12.8021 1.7465 13.93 2.534 14.7149C3.213 15.393 4.09937 15.75 5.09687 15.75H13.7016C13.7034 15.7483 13.7104 15.75 13.7156 15.75C14.714 15.75 15.5995 15.393 16.2785 14.7149C17.0669 13.93 17.5 12.8021 17.5 11.5395V5.53C17.5 3.08613 15.9022 1.3125 13.7016 1.3125ZM15.0806 5.3627C15.309 5.64357 15.2661 6.05657 14.9852 6.28582L11.0967 9.44633C10.605 9.83658 10.017 10.0317 9.42987 10.0317C8.8445 10.0317 8.26087 9.83832 7.77262 9.45157L3.84825 6.28757C3.56562 6.06007 3.52187 5.6462 3.7485 5.36445C3.97687 5.08357 4.38987 5.03895 4.67162 5.26557L8.5925 8.42607C9.08512 8.81633 9.779 8.81633 10.2751 8.42257L14.1566 5.26733C14.4384 5.0372 14.8514 5.08095 15.0806 5.3627Z" fill="#C4C4C4"/>
</svg>
