<svg width="18" height="17" viewBox="0 0 18 17" fill="none" xmlns="http://www.w3.org/2000/svg">
<path fill-rule="evenodd" clip-rule="evenodd" d="M7.74317 14.2414C8.13167 14.6501 8.63042 14.8747 9.14792 14.8747H9.14867C9.66842 14.8747 10.1694 14.6501 10.5587 14.2407C10.7672 14.0233 11.1227 14.0055 11.3529 14.2018C11.5839 14.398 11.6027 14.7344 11.3949 14.9519C10.7889 15.5873 9.99167 15.9372 9.14867 15.9372H9.14717C8.30642 15.9365 7.51067 15.5865 6.90692 14.9512C6.69917 14.7337 6.71792 14.3973 6.94892 14.2018C7.17992 14.0048 7.53542 14.0226 7.74317 14.2414ZM9.18527 0.708008C12.519 0.708008 14.7585 3.16026 14.7585 5.4503C14.7585 6.62826 15.0758 7.12763 15.4125 7.65747C15.7455 8.18022 16.1228 8.7738 16.1228 9.8958C15.861 12.7624 12.6923 12.9962 9.18527 12.9962C5.67827 12.9962 2.50877 12.7624 2.25001 9.94113C2.24777 8.7738 2.62502 8.18022 2.95802 7.65747L3.07558 7.47058C3.36503 7.00074 3.61202 6.48968 3.61202 5.4503C3.61202 3.16026 5.85152 0.708008 9.18527 0.708008ZM9.18527 1.77051C6.56402 1.77051 4.73702 3.70992 4.73702 5.4503C4.73702 6.92292 4.30427 7.60363 3.92177 8.2043C3.61502 8.68668 3.37277 9.06776 3.37277 9.8958C3.49802 11.2317 4.43177 11.9337 9.18527 11.9337C13.9125 11.9337 14.8755 11.2006 15 9.84976C14.9978 9.06776 14.7555 8.68668 14.4488 8.2043C14.0663 7.60363 13.6335 6.92292 13.6335 5.4503C13.6335 3.70992 11.8065 1.77051 9.18527 1.77051Z" fill="black"/>
<circle cx="15" cy="11" r="3" fill="#D70067"/>
</svg>
